<svg xmlns="http://www.w3.org/2000/svg" xmlns:xlink="http://www.w3.org/1999/xlink" version="1.1" x="0px" y="0px" viewBox="0 0 512 640" style="enable-background:new 0 0 512 512;" xml:space="preserve"><g><g><path d="M168.988,246.462c35.003,0,63.481-28.478,63.481-63.481S203.992,119.5,168.988,119.5s-63.481,28.478-63.481,63.481    S133.985,246.462,168.988,246.462z"/><path d="M252.708,288.787c-23.156-20.313-52.88-31.5-83.708-31.5c-70.035,0-127,56.978-127,127.012V393h254v-8.701    C296,347.737,280.225,312.925,252.708,288.787z"/><path d="M343.012,246.462c35.003,0,63.48-28.478,63.48-63.481s-28.478-63.481-63.48-63.481c-35.004,0-63.481,28.478-63.481,63.481    S308.008,246.462,343.012,246.462z"/><path d="M343,257.287c-28.958,0-56.936,9.871-79.418,27.904c0.204,0.194,0.4,0.395,0.604,0.591c0.386,0.374,0.77,0.75,1.15,1.128    c0.472,0.467,0.94,0.936,1.404,1.409c0.375,0.382,0.747,0.766,1.117,1.151c0.459,0.479,0.914,0.961,1.366,1.446    c0.362,0.389,0.723,0.779,1.081,1.173c0.447,0.492,0.89,0.987,1.33,1.485c0.349,0.396,0.697,0.79,1.041,1.188    c0.438,0.508,0.87,1.02,1.3,1.532c0.333,0.398,0.667,0.796,0.996,1.197c0.429,0.523,0.851,1.053,1.271,1.582    c0.317,0.4,0.637,0.8,0.95,1.203c0.422,0.543,0.834,1.091,1.247,1.64c0.3,0.397,0.602,0.794,0.896,1.195    c0.419,0.569,0.829,1.146,1.239,1.722c0.275,0.387,0.555,0.771,0.826,1.161c0.426,0.611,0.84,1.229,1.255,1.846    c0.244,0.363,0.493,0.723,0.733,1.088c0.446,0.678,0.88,1.361,1.313,2.046c0.198,0.313,0.402,0.622,0.598,0.936    c0.521,0.838,1.029,1.683,1.532,2.531c0.099,0.166,0.202,0.33,0.3,0.497c0.605,1.031,1.197,2.069,1.774,3.115    c0.016,0.027,0.029,0.055,0.045,0.082c0.554,1.004,1.095,2.015,1.623,3.032c0.153,0.295,0.299,0.595,0.449,0.891    c0.385,0.754,0.769,1.508,1.139,2.268c0.182,0.374,0.355,0.753,0.534,1.129c0.327,0.687,0.654,1.373,0.97,2.065    c0.19,0.418,0.372,0.84,0.559,1.261c0.291,0.656,0.583,1.313,0.864,1.975c0.188,0.443,0.369,0.891,0.553,1.336    c0.266,0.644,0.53,1.287,0.786,1.935c0.183,0.462,0.357,0.926,0.535,1.39c0.243,0.638,0.485,1.274,0.72,1.915    c0.174,0.477,0.342,0.957,0.511,1.436c0.224,0.633,0.444,1.266,0.658,1.901c0.164,0.488,0.323,0.979,0.482,1.47    c0.204,0.632,0.406,1.265,0.602,1.899c0.153,0.499,0.303,0.999,0.45,1.499c0.187,0.632,0.37,1.265,0.547,1.9    c0.142,0.506,0.28,1.014,0.416,1.521c0.17,0.635,0.334,1.27,0.495,1.906c0.129,0.513,0.256,1.025,0.379,1.539    c0.152,0.638,0.3,1.278,0.443,1.919c0.116,0.516,0.23,1.032,0.341,1.549c0.137,0.644,0.266,1.288,0.394,1.934    c0.103,0.52,0.205,1.039,0.302,1.561c0.119,0.646,0.231,1.296,0.342,1.945c0.089,0.522,0.18,1.044,0.263,1.568    c0.104,0.654,0.198,1.312,0.292,1.968c0.075,0.521,0.152,1.04,0.221,1.562c0.088,0.668,0.166,1.339,0.244,2.009    c0.06,0.514,0.123,1.025,0.178,1.54c0.072,0.688,0.133,1.377,0.194,2.066c0.045,0.499,0.095,0.997,0.135,1.497    c0.057,0.722,0.101,1.445,0.146,2.169c0.03,0.471,0.066,0.94,0.091,1.412c0.042,0.799,0.069,1.599,0.097,2.399    c0.015,0.397,0.036,0.795,0.046,1.193c0.032,1.199,0.049,2.4,0.049,3.604V393h164v-8.701C470,314.265,413.034,257.287,343,257.287    z"/></g></g><text x="0" y="527" fill="#000000" font-size="5px" font-weight="bold" font-family="'Helvetica Neue', Helvetica, Arial-Unicode, Arial, Sans-serif">Created by Flatart</text><text x="0" y="532" fill="#000000" font-size="5px" font-weight="bold" font-family="'Helvetica Neue', Helvetica, Arial-Unicode, Arial, Sans-serif">from the Noun Project</text></svg>