<svg xmlns="http://www.w3.org/2000/svg" xmlns:xlink="http://www.w3.org/1999/xlink" version="1.1" x="0px" y="0px" viewBox="0 0 100 125" enable-background="new 0 0 100 100" xml:space="preserve"><path d="M87.1,44.1c0-0.1,0-0.3,0-0.3C87.1,27.9,71,16,49.6,16c-20.2,0-36.7,13-36.7,29s16.5,29,36.7,29c1.6,0,3.2-0.1,4.8-0.3  L53.3,81c-0.1,1,0.3,2,1.1,2.6c0.5,0.3,1,0.5,1.5,0.5c0.4,0,0.9-0.1,1.3-0.3C77,72.9,87.6,58.8,87.1,44.1z M59.4,76.3l0.8-5.2  c0.1-0.8-0.2-1.7-0.8-2.3c-0.5-0.5-1.2-0.7-1.8-0.7c-0.2,0-0.3,0-0.5,0c-2.5,0.5-5,0.7-7.5,0.7c-17.3,0-31.4-10.7-31.4-23.7  s14.1-23.7,31.4-23.7c18.1,0,32.2,9.9,32.2,22.5c0,0.1,0,0.3,0,0.5C82.2,55.7,74.3,67,59.4,76.3z"/><text x="0" y="115" fill="#000000" font-size="5px" font-weight="bold" font-family="'Helvetica Neue', Helvetica, Arial-Unicode, Arial, Sans-serif">Created by mikicon</text><text x="0" y="120" fill="#000000" font-size="5px" font-weight="bold" font-family="'Helvetica Neue', Helvetica, Arial-Unicode, Arial, Sans-serif">from the Noun Project</text></svg>